<?xml version="1.0" encoding="utf-8"?>
<!-- Generator: Adobe Illustrator 20.1.0, SVG Export Plug-In . SVG Version: 6.00 Build 0)  -->
<svg version="1.1" id="Layer_1" xmlns="http://www.w3.org/2000/svg" xmlns:xlink="http://www.w3.org/1999/xlink" x="0px" y="0px"
	 viewBox="0 0 400 400" style="enable-background:new 0 0 400 400;" xml:space="preserve">
<g>
	<path class="fill-to-change" d="M45.1,171.2c-1.9,3.7-3.2,7.8-3.9,12.2c-0.3,2.3-0.5,4.5-0.5,6.7l1.6,101L7.5,366.3c-1.3,2.3-2.1,4.8-2.5,7.6
		c-1.9,12.4,6.6,24,19,25.8c9.7,1.5,18.9-3.4,23.3-11.5L85.7,306c0.9-1.9,1.5-3.9,1.8-6c0.2-1.1,0.3-2.1,0.3-3.2l-0.3-62.5l59,25.8
		l9.5,61.1c2,8.9,9.2,16.1,18.8,17.5c12.4,1.9,24-6.6,25.9-19c0.3-2.1,0.3-4.2,0.1-6.2l-11.6-73.6c-1.3-7.2-6.1-13.3-12.7-16.4
		l-52.8-23.5l33.6-58.5l16.7,21.2c1.7,1.9,3.9,3.5,6.4,4.6l63.6,18.5c8.4,1.8,17.1-2.6,20.4-10.8c3.7-9.2-0.7-19.6-9.9-23.3
		c-0.3-0.1-0.6-0.2-0.9-0.3l-55.3-16.2l-41.6-49.8c-6.1-6.7-14.5-11.3-24.2-12.8c-16.9-2.6-32.9,5.5-41.3,19.1L45.1,171.2z"/>
	<path class="fill-to-change" d="M45.1,171.2c-1.9,3.7-3.2,7.8-3.9,12.2c-0.3,2.3-0.5,4.5-0.5,6.7l1.6,101L7.5,366.3c-1.3,2.3-2.1,4.8-2.5,7.6
		c-1.9,12.4,6.6,24,19,25.8c9.7,1.5,18.9-3.4,23.3-11.5L85.7,306c0.9-1.9,1.5-3.9,1.8-6c0.2-1.1,0.3-2.1,0.3-3.2l-0.3-62.5l59,25.8
		l9.5,61.1c2,8.9,9.2,16.1,18.8,17.5c12.4,1.9,24-6.6,25.9-19c0.3-2.1,0.3-4.2,0.1-6.2l-11.6-73.6c-1.3-7.2-6.1-13.3-12.7-16.4
		l-52.8-23.5l33.6-58.5l16.7,21.2c1.7,1.9,3.9,3.5,6.4,4.6l63.6,18.5c8.4,1.8,17.1-2.6,20.4-10.8c3.7-9.2-0.7-19.6-9.9-23.3
		c-0.3-0.1-0.6-0.2-0.9-0.3l-55.3-16.2l-41.6-49.8c-6.1-6.7-14.5-11.3-24.2-12.8c-16.9-2.6-32.9,5.5-41.3,19.1L45.1,171.2z"/>
	<path class="fill-to-change" d="M219.7,311l-4,30.3L114.1,373l1.1,18.7l266.6,0c9.4,0,17.1-7.6,17.1-17l-0.4-359.1l-36.5-8.5l-21,94.4
		l-42.7,14.8l-31.2,87l37.2,66.5l-8.3,25.6L219.7,311z"/>
	<path class="fill-to-change" d="M219.7,311l-4,30.3L114.1,373l1.1,18.7l266.6,0c9.4,0,17.1-7.6,17.1-17l-0.4-359.1l-36.5-8.5l-21,94.4
		l-42.7,14.8l-31.2,87l37.2,66.5l-8.3,25.6L219.7,311z"/>
	<path class="fill-to-change" d="M153.2,67.9c18.8,0,34-15.2,34-33.9c0-18.8-15.2-34-34-34c-18.8,0-34,15.2-34,34
		C119.2,52.7,134.4,67.9,153.2,67.9"/>
	<path class="fill-to-change" d="M153.2,67.9c18.8,0,34-15.2,34-33.9c0-18.8-15.2-34-34-34c-18.8,0-34,15.2-34,34
		C119.2,52.7,134.4,67.9,153.2,67.9"/>
	<path class="fill-to-change" d="M85.4,73.2c2.7-4.6,1.1-10.6-3.5-13.3l-16.5-9.5c-4.6-2.7-10.6-1.1-13.3,3.5L1.3,141.5
		c-2.7,4.6-1.1,10.6,3.5,13.3l16.5,9.6c4.6,2.7,10.6,1.1,13.3-3.5L85.4,73.2z"/>
	<path class="fill-to-change" d="M85.4,73.2c2.7-4.6,1.1-10.6-3.5-13.3l-16.5-9.5c-4.6-2.7-10.6-1.1-13.3,3.5L1.3,141.5
		c-2.7,4.6-1.1,10.6,3.5,13.3l16.5,9.6c4.6,2.7,10.6,1.1,13.3-3.5L85.4,73.2z"/>
</g>
</svg>
