<?xml version="1.0" encoding="utf-8"?>
<!-- Generator: Adobe Illustrator 20.1.0, SVG Export Plug-In . SVG Version: 6.00 Build 0)  -->
<svg version="1.1" id="Layer_1" xmlns="http://www.w3.org/2000/svg" xmlns:xlink="http://www.w3.org/1999/xlink" x="0px" y="0px"
	 viewBox="0 0 311 311" style="enable-background:new 0 0 311 311;" xml:space="preserve">
<g>
	<g>
		<path class="fill-to-change" d="M163.9,0.5c-13.8,0-25.1,10.1-25.1,26c0,15.9,11.2,27.1,25.1,27.1c13.8,0,25.1-11.2,25.1-27.1
			C189,10.7,177.8,0.5,163.9,0.5L163.9,0.5z M253,36.6c-7.6-0.2-15,2.1-21.3,6.7l2.8,5.6c4.8-3.5,10.6-5.7,16.5-5.8
			c1.5,0,3.1,0.1,4.6,0.3c12.9,1.5,23.1,13.5,24,26.2l5.9-1.2c-1.1-13.7-9.8-25.2-22.3-29.7C259.8,37.4,256.4,36.7,253,36.6
			L253,36.6z M252.3,48.5c-5.5-0.2-11,1.7-15.4,5.4l3.2,6.5c4.4-4.4,10.8-5.9,16.5-3.8c6.4,2.3,10.5,8.5,10.4,15.5l6.9-1.5
			c-0.4-9.5-6.2-17.7-14.9-20.8C256.9,49,254.6,48.6,252.3,48.5L252.3,48.5z M94.9,59.3c-7.6,0.1-12.4,5.8-13.6,13.5
			c-0.8,5.1-0.8,10.2,2.8,13.8c-23.7,31.3-33.6,68.4,9.4,70.2c1.9,0.3,3.6-1,3.9-2.8l12.2-73c3.5-19.7,3.5-19.4-12.1-21.5
			C96.6,59.3,95.8,59.2,94.9,59.3L94.9,59.3z M251.7,60.9c-3.5-0.1-6.9,1.5-9.1,4.4l2.9,5.8l0.2,0.1c0.1-0.3,0.1-0.6,0.2-0.9
			c0.5-1.4,1.6-2.6,2.9-3.3c1.3-0.7,2.9-0.8,4.3-0.3c2.9,1,4.3,4.3,3.3,7.3c-0.1,0.1-0.1,0.3-0.2,0.4l5.8-1.2
			c0.6-5.2-2.3-10-7.1-11.7C253.8,61.1,252.8,60.9,251.7,60.9L251.7,60.9z M172.3,62.6c-0.7,0-1.3,0.1-2,0.2
			c-0.4-0.1-0.9-0.1-1.3-0.1h-39.3c-9.2,0.6-10.2,5.8-12,15.4L101,171.4h63.6l12.3-69.1l15.7,24.8c0.6,0.9,1.4,1.8,2.2,2.5
			c1.7,3.4,5.3,5.5,9.3,5.3l45.7-13.9c5.4-0.3,9.5-4.9,9.1-10.3l-0.3-3.9c-0.2-2.6-1.3-4.9-3.1-6.6l6.1-10.5c1.6-2.7,0.7-6.1-2-7.7
			l-8.1-4.7c-2.7-1.6-6.1-0.7-7.7,2l-14,23.9c-0.1,0.1-0.1,0.2-0.2,0.3l-19.6,6.3L182.6,68C180.2,64.4,176.3,62.5,172.3,62.6
			L172.3,62.6z M165.9,180l-31,0.4l27.8,63.3l1.2,55.3c2.9,15.6,29.1,14.4,29.4-0.1l0-58.1L165.9,180z M98.4,180.6l-18,113.1
			c-3.1,17.9,25.7,19.3,30.3,8.9l19.8-121.5L98.4,180.6z M98.4,180.6"/>
	</g>
</g>
</svg>
