<?xml version="1.0" encoding="utf-8"?>
<!-- Generator: Adobe Illustrator 20.1.0, SVG Export Plug-In . SVG Version: 6.00 Build 0)  -->
<svg version="1.1" id="Layer_1" xmlns="http://www.w3.org/2000/svg" xmlns:xlink="http://www.w3.org/1999/xlink" x="0px" y="0px"
	 viewBox="0 0 400 400" style="enable-background:new 0 0 400 400;" xml:space="preserve">
<path class="fill-to-change" d="M319.9,177.4c6,1.9,14,3.8,20,3.8c34,0,59.9-24.5,59.9-56.6c0-24.5-16-45.3-40-52.8c0-1.9,0-1.9,0-3.8
	c0-32.1-26-56.6-59.9-56.6S240,36,240,68c0,1.9,0,1.9,0,3.8c-24,7.5-40,28.3-40,52.8c0,32.1,26,56.6,59.9,56.6c8,0,14-1.9,20-3.8
	v173.5H220V237.7h20L120.1,124.6L0.2,237.7h20v113.1h-20v37.7h399.6v-37.7h-79.9V177.4z M100.1,350.8v-37.7c0-11.3,8-18.9,20-18.9
	s20,7.5,20,18.9v37.7H100.1z"/>
</svg>
