<?xml version="1.0" encoding="utf-8"?>
<!-- Generator: Adobe Illustrator 20.1.0, SVG Export Plug-In . SVG Version: 6.00 Build 0)  -->
<svg version="1.1" id="Layer_1" xmlns="http://www.w3.org/2000/svg" xmlns:xlink="http://www.w3.org/1999/xlink" x="0px" y="0px"
	 viewBox="0 0 400 400" style="enable-background:new 0 0 400 400;" xml:space="preserve">
<path class="fill-to-change" d="M24,128v239.6c0,17.9,14.3,32.4,32,32.4h288c17.7,0,32-14.5,32-32.4V128H24z M112,376H48v-64h64V376z M112,296H48v-64h64
	V296z M112,216H48v-64h64V216z M192,376h-64v-64h64V376z M192,296h-64v-64h64V296z M192,216h-64v-64h64V216z M272,376h-64v-64h64
	V376z M272,296h-64v-64h64V296z M272,216h-64v-64h64V216z M352,376h-64v-64h64V376z M352,296h-64v-64h64V296z M352,216h-64v-64h64
	V216z"/>
<path class="fill-to-change" d="M344,48h-52V12c0-6.6-5.4-12-12-12c-6.6,0-12,5.4-12,12v36H132V12c0-6.6-5.4-12-12-12c-6.6,0-12,5.4-12,12v36H56
	c-17.7,0-32,14.5-32,32.4V108l0,0v4h352v-4l0,0V80.4C376,62.5,361.7,48,344,48z M120,104c-13.3,0-24-10.7-24-24
	c0-8.9,4.8-16.6,12-20.8V80c0,6.6,5.4,12,12,12c6.6,0,12-5.4,12-12V59.2c7.2,4.2,12,11.9,12,20.8C144,93.3,133.3,104,120,104z
	 M280,104c-13.3,0-24-10.7-24-24c0-8.9,4.8-16.6,12-20.8V80c0,6.6,5.4,12,12,12c6.6,0,12-5.4,12-12V59.2c7.2,4.2,12,11.9,12,20.8
	C304,93.3,293.3,104,280,104z"/>
</svg>
