<?xml version="1.0" encoding="utf-8"?>
<!-- Generator: Adobe Illustrator 20.1.0, SVG Export Plug-In . SVG Version: 6.00 Build 0)  -->
<svg version="1.1" id="Layer_1" xmlns="http://www.w3.org/2000/svg" xmlns:xlink="http://www.w3.org/1999/xlink" x="0px" y="0px"
	 viewBox="0 0 400 400" style="enable-background:new 0 0 400 400;" xml:space="preserve">
<style type="text/css">
	.st0{clip-path:url(#SVGID_2_);}
	.st1{clip-path:url(#SVGID_4_);}
</style>
<g>
	<defs>
		<rect id="SVGID_1_" width="400" height="400"/>
	</defs>
	<clipPath id="SVGID_2_">
		<use xlink:href="#SVGID_1_"  style="overflow:visible;"/>
	</clipPath>
	<path class="st0" d="M318.5,332.5c-3,0-6,0.4-8.8,1.2l-109.9,24.4v16.3l110.8,24.7c2.5,0.6,5.2,0.9,7.9,0.9
		c18.6,0,33.8-15.1,33.8-33.8C352.3,347.6,337.2,332.5,318.5,332.5 M318.5,384.9c-0.9,0-1.7,0-2.6-0.2l-84.1-18.5l82.4-18.1
		c1.4-0.3,2.8-0.5,4.3-0.5c10.3,0,18.6,8.3,18.6,18.6C337.2,376.5,328.8,384.9,318.5,384.9"/>
	<path class="st0" d="M157,329.8c-3-0.7-5.9-1-8.8-0.9l-112.6-1.5l-3.7,15.9L134,392.8c2.3,1.2,4.8,2.1,7.5,2.7
		c18.1,4.3,36.3-6.9,40.6-25.1C186.4,352.3,175.2,334.1,157,329.8 M167.4,367c-2.4,10-12.4,16.2-22.4,13.8c-0.8-0.2-1.6-0.5-2.4-0.7
		l-77.6-37.4l84.4,1.3c1.4,0,2.8,0.2,4.3,0.5C163.5,346.9,169.7,357,167.4,367"/>
</g>
<g>
	<defs>
		<rect id="SVGID_3_" width="400" height="400"/>
	</defs>
	<clipPath id="SVGID_4_">
		<use xlink:href="#SVGID_3_"  style="overflow:visible;"/>
	</clipPath>
	<path class="st1" d="M149.5,108.7c6.6-12.5,11.8-14.5,11.8-14.5L218.5,63c12.5-8.5,27-2,27-2l32.8,12.5
		c16.4,5.9,17.1,15.1,17.1,15.1l20.4,65.1l43.9,15.5c0,0,11.8,5.1,7.6,18.1c-5.6,12.9-17.5,9-17.5,9l-50.4-19.1
		c-5-1.8-8.9-5.9-10.3-11.1L277.6,133l-17.7,49l52.7,54.8c6.6,11.5,5.9,20,5.9,20l0.1,94.6c0,9.8-8,17.8-17.8,17.8
		c-9.8,0-17.8-8-17.8-17.8l0.1-80.8l-56-55.8l-8.5,58.5c-1.4,7.5-6.8,14.4-9.8,17.8l-56.3,65.2c-6.5,7.4-17.7,8.2-25.1,1.8
		c-7.4-6.5-8.2-17.7-1.8-25.1l48.3-55.8l13.8-101.1l28.9-76.5l-40,23l-23.9,46.8c-7.2,14.8-20.2,7-20.2,7
		c-11.8-6.7-7.3-18.1-7.3-18.1L149.5,108.7z"/>
	<path class="st1" d="M280.9,64.4c17.8,0,32.2-14.4,32.2-32.2c0-17.8-14.4-32.2-32.2-32.2c-17.8,0-32.2,14.4-32.2,32.2
		C248.7,50,263.1,64.4,280.9,64.4"/>
</g>
</svg>
