<?xml version="1.0" encoding="utf-8"?>
<!-- Generator: Adobe Illustrator 20.1.0, SVG Export Plug-In . SVG Version: 6.00 Build 0)  -->
<svg version="1.1" id="Layer_1" xmlns="http://www.w3.org/2000/svg" xmlns:xlink="http://www.w3.org/1999/xlink" x="0px" y="0px"
	 viewBox="0 0 400 400" style="enable-background:new 0 0 400 400;" xml:space="preserve">
<g>
	<path d="M341.1,312.4c20.1-5.9,39.3-11.5,58.9-17.2c0,1.7,0,2.9,0,4.2c0,21.8,0,43.7,0,65.5c0,11.6-5.6,17.2-17.2,17.2
		c-80.2,0-160.4,0-240.6,0c-1.2,0-2.4,0-3.6,0c-0.1-0.3-0.2-0.5-0.3-0.8c27.5-19.9,54.9-39.8,82.7-60c11.4,5.4,22.8,10.9,34.2,16.4
		c15.4-4.5,30.7-9,46.1-13.5c-44.5,0.7-82.8-34.7-85.3-80.7c-2-37.4,23.6-73.2,60.5-83.8c37.6-10.7,77.5,6.3,96.3,40.5
		C391.5,234.5,384.3,286.4,341.1,312.4z M237.3,238.4c0,34.5,27.5,62.1,61.9,62.1c34.5,0.1,62.5-27.7,62.5-62.1
		c0-34.3-28.3-62.5-62.4-62.3C265,176.3,237.2,204.1,237.3,238.4z"/>
	<path d="M199.4,121.1c11.8-3.3,23.6-6.5,35.3-9.7c4.3-1.2,8.6-2.4,13-3.5c7.5-1.9,13.6,1.2,15.6,7.7c1.9,6.3-1.9,12.6-9.3,14.7
		c-13.6,3.9-27.3,7.6-41,11.3c-4.6,1.3-9.1,2.4-13.7,3.8c-5.8,1.8-10.8,0.5-15.2-3.5c-8.2-7.3-16.3-14.7-24.5-22
		c-0.6-0.6-1.3-1-2.3-1.8c-9.2,16.1-18.3,31.9-27.7,48.2c7,1.6,13.8,3.1,20.5,4.6c7.2,1.6,14.4,3,21.5,4.7c9,2.1,14.5,7.6,16.9,16.9
		c6.9,26.3,14.3,52.6,21.6,78.8c2.9,10.7-2,19.9-11.9,22.6c-9.6,2.6-18.4-3-21.3-13.6c-5.5-19.9-11-39.8-16.4-59.7
		c-0.3-1.1-0.7-2.1-1.1-3.4c-15.1-3.7-30.2-7.4-45.3-11c-8.5-2.1-16.9-4-25.4-6.1c-16.8-4.2-24.5-22-16-37.1
		c14.3-25.3,28.7-50.5,43-75.7c8.2-14.4,26.2-17.6,38.6-6.6C169.2,93.7,184.1,107.3,199.4,121.1z"/>
	<path d="M166.6,297.2c-0.1,46.5-37.5,83.4-84.4,83.2C37,380.3-0.1,342.6,0,296.9c0.1-46.1,37.5-83.4,83.6-83.3
		C129.4,213.7,166.7,251.3,166.6,297.2z M83.3,234.9c-34.4,0-62.2,27.7-62.2,62c0,34.5,27.8,62.4,62.2,62.5
		c34.3,0,62.2-28,62.2-62.5C145.4,262.6,117.6,234.9,83.3,234.9z"/>
	<path d="M199.5,47.6c0.1,16.7-13.2,30-29.8,29.9c-16.5-0.1-29.6-13.1-29.7-29.6C139.8,31.3,153.1,18,169.8,18
		C186.3,18,199.4,31.1,199.5,47.6z"/>
</g>
</svg>
