<?xml version="1.0" encoding="utf-8"?>
<!-- Generator: Adobe Illustrator 20.1.0, SVG Export Plug-In . SVG Version: 6.00 Build 0)  -->
<svg version="1.1" id="Layer_1" xmlns="http://www.w3.org/2000/svg" xmlns:xlink="http://www.w3.org/1999/xlink" x="0px" y="0px"
	 viewBox="0 0 400 400" style="enable-background:new 0 0 400 400;" xml:space="preserve">
<g>
	<path class="fill-to-change" d="M244,66.9c18.4,0,33.4-14.9,33.4-33.4C277.5,15,262.4,0,244,0c-18.5,0-33.5,15-33.5,33.5
		C210.5,52,225.5,66.9,244,66.9"/>
	<path class="fill-to-change" d="M387.8,360.9l-54.4-64.1c0,0-17-99.2-17-99.4c0-0.1-2.6-11.2-2.6-11.2c0.1,0.1-6.8-31.3-12.1-55.8
		c8.5,4.9,16.1,9.3,16.5,9.5c0.4,0.9,28.8,55,28.8,55c2.1,4,5.8,6.9,10.1,8.3c4.4,1.3,9,0.9,13-1.3c4-2,6.9-5.6,8.3-10
		c1.4-4.3,1-8.9-1.2-12.9l-31.1-59.4c0,0-1.3-2.1-2.9-3.8c-2.2-2.2-7.2-5-7.2-5l-60.5-34.4c-7.7-3.9-16.2-5.2-24.7-3.4
		c-3.4,0.7-6.8,2.1-10.4,4.1c-0.5,0.1-13.8,6-21.6,24.2l-31.1,62.5l-57.6,15.3c0,0-3.4,2.3-4,3.5c-0.8,1.5-2.6,4.6-2.5,7.9
		c0,1,0.1,2,0.3,3.1c1.7,9.2,10.7,15.3,19.9,13.5l58.7-11.5c0,0,5-1.5,7.1-3.1c2.8-1.9,4.9-6.1,4.9-6.1l15.4-31
		c0,0,10.6,50.2,10.8,51.1c-1.2,1.2-48.1,51-48.1,51l-0.9,1c-4.5,4.2-7.1,9.8-7.1,15.6v105.5c0,11.2,9.2,20.3,20.4,20.3
		c11.1,0,20.4-9.1,20.4-20.3v-88.2c4.3-4.5,40.3-42.3,49.9-52.4c1,6,10.3,59.4,10.3,59.4c0.9,4.7,3.1,9,6.4,12.4
		c0,0.1,64.6,76.3,64.6,76.3c3.6,4.1,8.5,6.6,13.8,7.2c5.5,0.4,10.7-1.3,14.9-4.9c4.7-3.9,7.1-9.8,7.1-15.5
		C392.6,369.4,391.1,364.8,387.8,360.9"/>
	<path class="fill-to-change" d="M99,178c0,2.3-91.6,3.4-91.6,0c0-8.6,20.5-15.5,45.8-15.5C78.5,162.4,99,169.4,99,178"/>
	<path class="fill-to-change" d="M99,178c0,2.3-91.6,3.4-91.6,0c0-8.6,20.5-15.5,45.8-15.5C78.5,162.4,99,169.4,99,178z"/>
</g>
</svg>
