<?xml version="1.0" encoding="utf-8"?>
<!-- Generator: Adobe Illustrator 20.1.0, SVG Export Plug-In . SVG Version: 6.00 Build 0)  -->
<svg version="1.1" id="Layer_1" xmlns="http://www.w3.org/2000/svg" xmlns:xlink="http://www.w3.org/1999/xlink" x="0px" y="0px"
	 viewBox="0 0 400 400" style="enable-background:new 0 0 400 400;" xml:space="preserve">
<g>
	<path class="fill-to-change" d="M299.4,329.8c2.1-1.5,5-1,6.5,1l8.4,11.5c1.5,2,1,5-1,6.5l-61.5,44.7c-2.1,1.5-4.9,1-6.5-1l-8.4-11.5
		c-1.5-2.1-1-5,1-6.5L299.4,329.8z"/>
	<polygon class="fill-to-change" points="229.8,272.2 205.5,229.3 192.6,238.8 217,281.8 	"/>
	<polygon class="fill-to-change" points="172.9,172.2 77.8,5.6 59.7,5.6 160,181.7 	"/>
	<path class="fill-to-change" d="M262.3,260.3c5.4-3.9,11.4-6.9,18.5-6.9l88.2,0.1c17.1,0,31,13.9,31,31c0,17.1-13.9,31-31,31l-73.6-0.1
		l-94,66.3c-33.1,23.9-53.2-2.3-53.2-2.3l-73.8-73.8c-12.4-14.8-9.7-43.1,5.1-55.5l102.1-72.7c10.1-8.5,25.3-7.2,33.8,2.9
		c8.5,10.1,7.2,25.3-2.9,33.8l-65.4,47.8l47,46.3L262.3,260.3z"/>
	<path class="fill-to-change" d="M45.3,251.8c25,0,45.3-20.3,45.3-45.3c0-25-20.3-45.3-45.3-45.3c-25,0-45.3,20.3-45.3,45.3
		C0,231.6,20.3,251.8,45.3,251.8"/>
</g>
</svg>
